<svg width="84" height="84" viewBox="0 0 84 84" fill="none" xmlns="http://www.w3.org/2000/svg">
<g id="Group" filter="url(#filter0_d_79_421)">
<path id="Vector" d="M78.7994 40.9079C80.0684 39.4144 80.0684 37.2214 78.7994 35.7279L73.4343 29.4136C72.7401 28.5965 72.4029 27.5349 72.4985 26.4669L73.2448 18.1309C73.4224 16.1459 72.1119 14.333 70.1713 13.8793L62.4487 12.0737C61.3687 11.8212 60.442 11.1316 59.89 10.1696L55.847 3.12371C54.8281 1.34807 52.633 0.628324 50.7605 1.45594L43.6171 4.61329C42.5871 5.06853 41.4129 5.06853 40.3829 4.61329L33.235 1.45396C31.3644 0.627181 29.1715 1.34458 28.1512 3.11704L24.1137 10.1315C23.5594 11.0944 22.6296 11.7834 21.5471 12.0334L13.8392 13.8135C11.8938 14.2628 10.5776 16.0779 10.7552 18.0666L11.5023 26.4351C11.5974 27.5003 11.262 28.5592 10.571 29.3754L5.19211 35.7287C3.9275 37.2224 3.92943 39.4118 5.19668 40.9033L10.566 47.2227C11.2601 48.0395 11.5972 49.1008 11.5019 50.1684L10.7543 58.5422C10.5772 60.5268 11.8876 62.3392 13.8278 62.7928L21.5544 64.5993C22.6326 64.8514 23.5581 65.5391 24.1105 66.4988L28.1467 73.5108C29.1689 75.2867 31.3677 76.0029 33.2397 75.1698L40.3792 71.9926C41.4113 71.5333 42.5894 71.5318 43.6226 71.9885L50.765 75.1454C52.6356 75.9722 54.8285 75.2548 55.8488 73.4823L59.8896 66.4623C60.4419 65.5027 61.3674 64.8149 62.4456 64.5628L70.1713 62.7565C72.1119 62.3028 73.4224 60.4899 73.2448 58.5049L72.4985 50.1689C72.4029 49.101 72.7401 48.0394 73.4343 47.2223L78.7994 40.9079ZM38.1008 52.5779C36.5292 54.2 33.9271 54.2 32.3554 52.578L24.2954 44.26C22.8804 42.7997 22.8819 40.4793 24.2988 39.0209V39.0209C25.7784 37.498 28.2244 37.5006 29.7007 39.0267L32.3545 41.7701C33.9262 43.3948 36.5308 43.3954 38.1032 41.7714L53.2704 26.1064C54.7473 24.581 57.193 24.579 58.6725 26.1018V26.1018C60.0897 27.5605 60.0913 29.8814 58.6761 31.3421L38.1008 52.5779Z" fill="#00A3FF" fill-opacity="0.625"/>
</g>
<defs>
<filter id="filter0_d_79_421" x="0.244873" y="1.11182" width="83.5063" height="82.4043" filterUnits="userSpaceOnUse" color-interpolation-filters="sRGB">
<feFlood flood-opacity="0" result="BackgroundImageFix"/>
<feColorMatrix in="SourceAlpha" type="matrix" values="0 0 0 0 0 0 0 0 0 0 0 0 0 0 0 0 0 0 127 0" result="hardAlpha"/>
<feOffset dy="4"/>
<feGaussianBlur stdDeviation="2"/>
<feComposite in2="hardAlpha" operator="out"/>
<feColorMatrix type="matrix" values="0 0 0 0 0 0 0 0 0 0 0 0 0 0 0 0 0 0 0.5 0"/>
<feBlend mode="normal" in2="BackgroundImageFix" result="effect1_dropShadow_79_421"/>
<feBlend mode="normal" in="SourceGraphic" in2="effect1_dropShadow_79_421" result="shape"/>
</filter>
</defs>
</svg>
